<svg xmlns="http://www.w3.org/2000/svg" viewBox="0 0 900 680" role="img" aria-labelledby="title desc">
  <title id="title">Mobilografiya kursi</title>
  <desc id="desc">Smartfon kamera, video montaj va neon studiya ko'rinishi</desc>
  <defs>
    <linearGradient id="bg" x1="0" x2="1" y1="0" y2="1">
      <stop offset="0" stop-color="#070617"/>
      <stop offset=".46" stop-color="#151037"/>
      <stop offset="1" stop-color="#021018"/>
    </linearGradient>
    <linearGradient id="phone" x1="0" x2="1" y1="0" y2="1">
      <stop offset="0" stop-color="#172554"/>
      <stop offset=".5" stop-color="#0f172a"/>
      <stop offset="1" stop-color="#020617"/>
    </linearGradient>
    <linearGradient id="screen" x1="0" x2="1" y1="0" y2="1">
      <stop offset="0" stop-color="#34f5ff"/>
      <stop offset=".48" stop-color="#ff4fd8"/>
      <stop offset="1" stop-color="#5b8cff"/>
    </linearGradient>
    <radialGradient id="glow" cx=".5" cy=".5" r=".5">
      <stop offset="0" stop-color="#ff4fd8" stop-opacity=".55"/>
      <stop offset=".55" stop-color="#34f5ff" stop-opacity=".22"/>
      <stop offset="1" stop-color="#34f5ff" stop-opacity="0"/>
    </radialGradient>
    <filter id="blur">
      <feGaussianBlur stdDeviation="18"/>
    </filter>
  </defs>
  <rect width="900" height="680" fill="url(#bg)"/>
  <circle cx="450" cy="330" r="310" fill="url(#glow)" filter="url(#blur)"/>
  <g opacity=".34" stroke="#34f5ff" stroke-width="1">
    <path d="M0 520h900M0 600h900M130 0v680M300 0v680M470 0v680M640 0v680M810 0v680"/>
    <path d="M-60 680 300 70M120 680 480 70M300 680 660 70M480 680 840 70"/>
  </g>
  <g transform="translate(330 78) rotate(-7 120 260)">
    <rect x="0" y="0" width="250" height="520" rx="42" fill="url(#phone)" stroke="#a5f3fc" stroke-opacity=".65" stroke-width="5"/>
    <rect x="22" y="42" width="206" height="428" rx="28" fill="#020617"/>
    <rect x="42" y="77" width="166" height="294" rx="20" fill="url(#screen)" opacity=".9"/>
    <circle cx="125" cy="223" r="66" fill="#020617" opacity=".78" stroke="#ecfeff" stroke-width="10"/>
    <circle cx="125" cy="223" r="30" fill="#34f5ff" opacity=".85"/>
    <circle cx="160" cy="184" r="12" fill="#fff"/>
    <rect x="64" y="394" width="122" height="22" rx="11" fill="#ecfeff" opacity=".74"/>
    <rect x="86" y="17" width="78" height="10" rx="5" fill="#ecfeff" opacity=".38"/>
  </g>
  <g fill="none" stroke-linecap="round">
    <path d="M170 205c95-86 250-122 404-81" stroke="#34f5ff" stroke-width="8" opacity=".72"/>
    <path d="M222 545c132 48 282 24 408-72" stroke="#ff4fd8" stroke-width="8" opacity=".78"/>
    <path d="M656 179v92M610 225h92" stroke="#92ff34" stroke-width="10" opacity=".8"/>
  </g>
  <g fill="#ecfeff">
    <circle cx="184" cy="424" r="8"/>
    <circle cx="246" cy="146" r="5"/>
    <circle cx="702" cy="391" r="7"/>
    <circle cx="740" cy="251" r="5"/>
  </g>
</svg>
